ISO-10303-21;
HEADER;
FILE_DESCRIPTION(('Open CASCADE Model'),'2;1');
FILE_NAME('fetch_shaft_coupler_5mm_to_7mm','2026-07-17T13:49:29',(
    'Author'),('Open CASCADE'),'Open CASCADE STEP processor 7.9',
  'build123d','Unknown');
FILE_SCHEMA(('AUTOMOTIVE_DESIGN { 1 0 10303 214 1 1 1 1 }'));
ENDSEC;
DATA;
#1 = APPLICATION_PROTOCOL_DEFINITION('international standard',
  'automotive_design',2000,#2);
#2 = APPLICATION_CONTEXT(
  'core data for automotive mechanical design processes');
#3 = SHAPE_DEFINITION_REPRESENTATION(#4,#10);
#4 = PRODUCT_DEFINITION_SHAPE('','',#5);
#5 = PRODUCT_DEFINITION('design','',#6,#9);
#6 = PRODUCT_DEFINITION_FORMATION('','',#7);
#7 = PRODUCT('fetch_shaft_coupler_5mm_to_7mm',
  'fetch_shaft_coupler_5mm_to_7mm','',(#8));
#8 = PRODUCT_CONTEXT('',#2,'mechanical');
#9 = PRODUCT_DEFINITION_CONTEXT('part definition',#2,'design');
#10 = ADVANCED_BREP_SHAPE_REPRESENTATION('',(#11,#15),#954);
#11 = AXIS2_PLACEMENT_3D('',#12,#13,#14);
#12 = CARTESIAN_POINT('',(0.,0.,0.));
#13 = DIRECTION('',(0.,0.,1.));
#14 = DIRECTION('',(1.,0.,-0.));
#15 = MANIFOLD_SOLID_BREP('',#16);
#16 = CLOSED_SHELL('',(#17,#130,#186,#444,#499,#610,#636,#693,#771,#801,
    #806,#831,#917,#947));
#17 = ADVANCED_FACE('',(#18),#33,.T.);
#18 = FACE_BOUND('',#19,.T.);
#19 = EDGE_LOOP('',(#20,#56,#82,#111));
#20 = ORIENTED_EDGE('',*,*,#21,.T.);
#21 = EDGE_CURVE('',#22,#24,#26,.T.);
#22 = VERTEX_POINT('',#23);
#23 = CARTESIAN_POINT('',(2.007485989988,2.775,34.6));
#24 = VERTEX_POINT('',#25);
#25 = CARTESIAN_POINT('',(-2.007485989988,2.775,34.6));
#26 = SURFACE_CURVE('',#27,(#32,#44),.PCURVE_S1.);
#27 = CIRCLE('',#28,3.425);
#28 = AXIS2_PLACEMENT_3D('',#29,#30,#31);
#29 = CARTESIAN_POINT('',(0.,0.,34.6));
#30 = DIRECTION('',(0.,0.,-1.));
#31 = DIRECTION('',(0.586127296347,0.810218978102,0.));
#32 = PCURVE('',#33,#38);
#33 = CYLINDRICAL_SURFACE('',#34,3.425);
#34 = AXIS2_PLACEMENT_3D('',#35,#36,#37);
#35 = CARTESIAN_POINT('',(0.,0.,20.));
#36 = DIRECTION('',(0.,0.,1.));
#37 = DIRECTION('',(1.,0.,0.));
#38 = DEFINITIONAL_REPRESENTATION('',(#39),#43);
#39 = LINE('',#40,#41);
#40 = CARTESIAN_POINT('',(7.227710927532,14.6));
#41 = VECTOR('',#42,1.);
#42 = DIRECTION('',(-1.,-0.));
#43 = ( GEOMETRIC_REPRESENTATION_CONTEXT(2) 
PARAMETRIC_REPRESENTATION_CONTEXT() REPRESENTATION_CONTEXT('2D SPACE',''
  ) );
#44 = PCURVE('',#45,#50);
#45 = CONICAL_SURFACE('',#46,3.425,0.785398163397);
#46 = AXIS2_PLACEMENT_3D('',#47,#48,#49);
#47 = CARTESIAN_POINT('',(0.,0.,34.6));
#48 = DIRECTION('',(-0.,-0.,-1.));
#49 = DIRECTION('',(1.,0.,0.));
#50 = DEFINITIONAL_REPRESENTATION('',(#51),#55);
#51 = LINE('',#52,#53);
#52 = CARTESIAN_POINT('',(-7.227710927532,-0.));
#53 = VECTOR('',#54,1.);
#54 = DIRECTION('',(1.,-0.));
#55 = ( GEOMETRIC_REPRESENTATION_CONTEXT(2) 
PARAMETRIC_REPRESENTATION_CONTEXT() REPRESENTATION_CONTEXT('2D SPACE',''
  ) );
#56 = ORIENTED_EDGE('',*,*,#57,.F.);
#57 = EDGE_CURVE('',#58,#24,#60,.T.);
#58 = VERTEX_POINT('',#59);
#59 = CARTESIAN_POINT('',(-2.007485989989,2.775,20.));
#60 = SURFACE_CURVE('',#61,(#65,#71),.PCURVE_S1.);
#61 = LINE('',#62,#63);
#62 = CARTESIAN_POINT('',(-2.007485989988,2.775,20.));
#63 = VECTOR('',#64,1.);
#64 = DIRECTION('',(0.,0.,1.));
#65 = PCURVE('',#33,#66);
#66 = DEFINITIONAL_REPRESENTATION('',(#67),#70);
#67 = B_SPLINE_CURVE_WITH_KNOTS('',1,(#68,#69),.UNSPECIFIED.,.F.,.F.,(2,
    2),(0.,14.6),.PIECEWISE_BEZIER_KNOTS.);
#68 = CARTESIAN_POINT('',(2.197067033237,0.));
#69 = CARTESIAN_POINT('',(2.197067033237,14.6));
#70 = ( GEOMETRIC_REPRESENTATION_CONTEXT(2) 
PARAMETRIC_REPRESENTATION_CONTEXT() REPRESENTATION_CONTEXT('2D SPACE',''
  ) );
#71 = PCURVE('',#72,#77);
#72 = PLANE('',#73);
#73 = AXIS2_PLACEMENT_3D('',#74,#75,#76);
#74 = CARTESIAN_POINT('',(-6.85,2.775,20.));
#75 = DIRECTION('',(0.,1.,0.));
#76 = DIRECTION('',(1.,0.,0.));
#77 = DEFINITIONAL_REPRESENTATION('',(#78),#81);
#78 = B_SPLINE_CURVE_WITH_KNOTS('',1,(#79,#80),.UNSPECIFIED.,.F.,.F.,(2,
    2),(-5.999999999062E-07,14.6000006),.PIECEWISE_BEZIER_KNOTS.);
#79 = CARTESIAN_POINT('',(4.842514010012,5.999999999062E-07));
#80 = CARTESIAN_POINT('',(4.842514010012,-14.6000006));
#81 = ( GEOMETRIC_REPRESENTATION_CONTEXT(2) 
PARAMETRIC_REPRESENTATION_CONTEXT() REPRESENTATION_CONTEXT('2D SPACE',''
  ) );
#82 = ORIENTED_EDGE('',*,*,#83,.T.);
#83 = EDGE_CURVE('',#58,#84,#86,.T.);
#84 = VERTEX_POINT('',#85);
#85 = CARTESIAN_POINT('',(2.007485989989,2.775,20.));
#86 = SURFACE_CURVE('',#87,(#92,#99),.PCURVE_S1.);
#87 = CIRCLE('',#88,3.425);
#88 = AXIS2_PLACEMENT_3D('',#89,#90,#91);
#89 = CARTESIAN_POINT('',(0.,0.,20.));
#90 = DIRECTION('',(0.,0.,1.));
#91 = DIRECTION('',(-0.586127296347,0.810218978102,0.));
#92 = PCURVE('',#33,#93);
#93 = DEFINITIONAL_REPRESENTATION('',(#94),#98);
#94 = LINE('',#95,#96);
#95 = CARTESIAN_POINT('',(2.197067033237,0.));
#96 = VECTOR('',#97,1.);
#97 = DIRECTION('',(1.,0.));
#98 = ( GEOMETRIC_REPRESENTATION_CONTEXT(2) 
PARAMETRIC_REPRESENTATION_CONTEXT() REPRESENTATION_CONTEXT('2D SPACE',''
  ) );
#99 = PCURVE('',#100,#105);
#100 = PLANE('',#101);
#101 = AXIS2_PLACEMENT_3D('',#102,#103,#104);
#102 = CARTESIAN_POINT('',(0.,0.,20.));
#103 = DIRECTION('',(0.,0.,1.));
#104 = DIRECTION('',(1.,0.,-0.));
#105 = DEFINITIONAL_REPRESENTATION('',(#106),#110);
#106 = CIRCLE('',#107,3.425);
#107 = AXIS2_PLACEMENT_2D('',#108,#109);
#108 = CARTESIAN_POINT('',(0.,0.));
#109 = DIRECTION('',(-0.586127296347,0.810218978102));
#110 = ( GEOMETRIC_REPRESENTATION_CONTEXT(2) 
PARAMETRIC_REPRESENTATION_CONTEXT() REPRESENTATION_CONTEXT('2D SPACE',''
  ) );
#111 = ORIENTED_EDGE('',*,*,#112,.T.);
#112 = EDGE_CURVE('',#84,#22,#113,.T.);
#113 = SURFACE_CURVE('',#114,(#118,#124),.PCURVE_S1.);
#114 = LINE('',#115,#116);
#115 = CARTESIAN_POINT('',(2.007485989988,2.775,20.));
#116 = VECTOR('',#117,1.);
#117 = DIRECTION('',(0.,0.,1.));
#118 = PCURVE('',#33,#119);
#119 = DEFINITIONAL_REPRESENTATION('',(#120),#123);
#120 = B_SPLINE_CURVE_WITH_KNOTS('',1,(#121,#122),.UNSPECIFIED.,.F.,.F.,
  (2,2),(0.,14.6),.PIECEWISE_BEZIER_KNOTS.);
#121 = CARTESIAN_POINT('',(7.227710927532,0.));
#122 = CARTESIAN_POINT('',(7.227710927532,14.6));
#123 = ( GEOMETRIC_REPRESENTATION_CONTEXT(2) 
PARAMETRIC_REPRESENTATION_CONTEXT() REPRESENTATION_CONTEXT('2D SPACE',''
  ) );
#124 = PCURVE('',#72,#125);
#125 = DEFINITIONAL_REPRESENTATION('',(#126),#129);
#126 = B_SPLINE_CURVE_WITH_KNOTS('',1,(#127,#128),.UNSPECIFIED.,.F.,.F.,
  (2,2),(-5.999999999062E-07,14.6000006),.PIECEWISE_BEZIER_KNOTS.);
#127 = CARTESIAN_POINT('',(8.857485989988,5.999999999062E-07));
#128 = CARTESIAN_POINT('',(8.857485989988,-14.6000006));
#129 = ( GEOMETRIC_REPRESENTATION_CONTEXT(2) 
PARAMETRIC_REPRESENTATION_CONTEXT() REPRESENTATION_CONTEXT('2D SPACE',''
  ) );
#130 = ADVANCED_FACE('',(#131,#162),#100,.T.);
#131 = FACE_BOUND('',#132,.T.);
#132 = EDGE_LOOP('',(#133));
#133 = ORIENTED_EDGE('',*,*,#134,.T.);
#134 = EDGE_CURVE('',#135,#135,#137,.T.);
#135 = VERTEX_POINT('',#136);
#136 = CARTESIAN_POINT('',(8.,-1.959434878636E-15,20.));
#137 = SURFACE_CURVE('',#138,(#143,#150),.PCURVE_S1.);
#138 = CIRCLE('',#139,8.);
#139 = AXIS2_PLACEMENT_3D('',#140,#141,#142);
#140 = CARTESIAN_POINT('',(0.,0.,20.));
#141 = DIRECTION('',(0.,0.,1.));
#142 = DIRECTION('',(1.,0.,-0.));
#143 = PCURVE('',#100,#144);
#144 = DEFINITIONAL_REPRESENTATION('',(#145),#149);
#145 = CIRCLE('',#146,8.);
#146 = AXIS2_PLACEMENT_2D('',#147,#148);
#147 = CARTESIAN_POINT('',(0.,0.));
#148 = DIRECTION('',(1.,0.));
#149 = ( GEOMETRIC_REPRESENTATION_CONTEXT(2) 
PARAMETRIC_REPRESENTATION_CONTEXT() REPRESENTATION_CONTEXT('2D SPACE',''
  ) );
#150 = PCURVE('',#151,#156);
#151 = CYLINDRICAL_SURFACE('',#152,8.);
#152 = AXIS2_PLACEMENT_3D('',#153,#154,#155);
#153 = CARTESIAN_POINT('',(0.,0.,0.));
#154 = DIRECTION('',(0.,0.,1.));
#155 = DIRECTION('',(1.,0.,-0.));
#156 = DEFINITIONAL_REPRESENTATION('',(#157),#161);
#157 = LINE('',#158,#159);
#158 = CARTESIAN_POINT('',(0.,20.));
#159 = VECTOR('',#160,1.);
#160 = DIRECTION('',(1.,0.));
#161 = ( GEOMETRIC_REPRESENTATION_CONTEXT(2) 
PARAMETRIC_REPRESENTATION_CONTEXT() REPRESENTATION_CONTEXT('2D SPACE',''
  ) );
#162 = FACE_BOUND('',#163,.T.);
#163 = EDGE_LOOP('',(#164,#165));
#164 = ORIENTED_EDGE('',*,*,#83,.F.);
#165 = ORIENTED_EDGE('',*,*,#166,.T.);
#166 = EDGE_CURVE('',#58,#84,#167,.T.);
#167 = SURFACE_CURVE('',#168,(#172,#179),.PCURVE_S1.);
#168 = LINE('',#169,#170);
#169 = CARTESIAN_POINT('',(0.,2.775,20.));
#170 = VECTOR('',#171,1.);
#171 = DIRECTION('',(1.,0.,0.));
#172 = PCURVE('',#100,#173);
#173 = DEFINITIONAL_REPRESENTATION('',(#174),#178);
#174 = LINE('',#175,#176);
#175 = CARTESIAN_POINT('',(0.,2.775));
#176 = VECTOR('',#177,1.);
#177 = DIRECTION('',(1.,0.));
#178 = ( GEOMETRIC_REPRESENTATION_CONTEXT(2) 
PARAMETRIC_REPRESENTATION_CONTEXT() REPRESENTATION_CONTEXT('2D SPACE',''
  ) );
#179 = PCURVE('',#72,#180);
#180 = DEFINITIONAL_REPRESENTATION('',(#181),#185);
#181 = LINE('',#182,#183);
#182 = CARTESIAN_POINT('',(6.85,0.));
#183 = VECTOR('',#184,1.);
#184 = DIRECTION('',(1.,0.));
#185 = ( GEOMETRIC_REPRESENTATION_CONTEXT(2) 
PARAMETRIC_REPRESENTATION_CONTEXT() REPRESENTATION_CONTEXT('2D SPACE',''
  ) );
#186 = ADVANCED_FACE('',(#187,#241),#151,.T.);
#187 = FACE_BOUND('',#188,.T.);
#188 = EDGE_LOOP('',(#189,#212,#239,#240));
#189 = ORIENTED_EDGE('',*,*,#190,.F.);
#190 = EDGE_CURVE('',#191,#135,#193,.T.);
#191 = VERTEX_POINT('',#192);
#192 = CARTESIAN_POINT('',(8.,0.,0.6));
#193 = SEAM_CURVE('',#194,(#198,#205),.PCURVE_S1.);
#194 = LINE('',#195,#196);
#195 = CARTESIAN_POINT('',(8.,-1.959434878636E-15,0.));
#196 = VECTOR('',#197,1.);
#197 = DIRECTION('',(0.,0.,1.));
#198 = PCURVE('',#151,#199);
#199 = DEFINITIONAL_REPRESENTATION('',(#200),#204);
#200 = LINE('',#201,#202);
#201 = CARTESIAN_POINT('',(0.,-0.));
#202 = VECTOR('',#203,1.);
#203 = DIRECTION('',(0.,1.));
#204 = ( GEOMETRIC_REPRESENTATION_CONTEXT(2) 
PARAMETRIC_REPRESENTATION_CONTEXT() REPRESENTATION_CONTEXT('2D SPACE',''
  ) );
#205 = PCURVE('',#151,#206);
#206 = DEFINITIONAL_REPRESENTATION('',(#207),#211);
#207 = LINE('',#208,#209);
#208 = CARTESIAN_POINT('',(6.28318530718,-0.));
#209 = VECTOR('',#210,1.);
#210 = DIRECTION('',(0.,1.));
#211 = ( GEOMETRIC_REPRESENTATION_CONTEXT(2) 
PARAMETRIC_REPRESENTATION_CONTEXT() REPRESENTATION_CONTEXT('2D SPACE',''
  ) );
#212 = ORIENTED_EDGE('',*,*,#213,.T.);
#213 = EDGE_CURVE('',#191,#191,#214,.T.);
#214 = SURFACE_CURVE('',#215,(#220,#227),.PCURVE_S1.);
#215 = CIRCLE('',#216,8.);
#216 = AXIS2_PLACEMENT_3D('',#217,#218,#219);
#217 = CARTESIAN_POINT('',(0.,0.,0.6));
#218 = DIRECTION('',(0.,0.,1.));
#219 = DIRECTION('',(1.,0.,-0.));
#220 = PCURVE('',#151,#221);
#221 = DEFINITIONAL_REPRESENTATION('',(#222),#226);
#222 = LINE('',#223,#224);
#223 = CARTESIAN_POINT('',(0.,0.6));
#224 = VECTOR('',#225,1.);
#225 = DIRECTION('',(1.,0.));
#226 = ( GEOMETRIC_REPRESENTATION_CONTEXT(2) 
PARAMETRIC_REPRESENTATION_CONTEXT() REPRESENTATION_CONTEXT('2D SPACE',''
  ) );
#227 = PCURVE('',#228,#233);
#228 = CONICAL_SURFACE('',#229,8.,0.785398163397);
#229 = AXIS2_PLACEMENT_3D('',#230,#231,#232);
#230 = CARTESIAN_POINT('',(0.,0.,0.6));
#231 = DIRECTION('',(0.,0.,1.));
#232 = DIRECTION('',(1.,0.,-0.));
#233 = DEFINITIONAL_REPRESENTATION('',(#234),#238);
#234 = LINE('',#235,#236);
#235 = CARTESIAN_POINT('',(0.,-0.));
#236 = VECTOR('',#237,1.);
#237 = DIRECTION('',(1.,-0.));
#238 = ( GEOMETRIC_REPRESENTATION_CONTEXT(2) 
PARAMETRIC_REPRESENTATION_CONTEXT() REPRESENTATION_CONTEXT('2D SPACE',''
  ) );
#239 = ORIENTED_EDGE('',*,*,#190,.T.);
#240 = ORIENTED_EDGE('',*,*,#134,.F.);
#241 = FACE_BOUND('',#242,.T.);
#242 = EDGE_LOOP('',(#243));
#243 = ORIENTED_EDGE('',*,*,#244,.T.);
#244 = EDGE_CURVE('',#245,#245,#247,.T.);
#245 = VERTEX_POINT('',#246);
#246 = CARTESIAN_POINT('',(1.25,7.90174031464,9.9));
#247 = SURFACE_CURVE('',#248,(#293,#366),.PCURVE_S1.);
#248 = B_SPLINE_CURVE_WITH_KNOTS('',7,(#249,#250,#251,#252,#253,#254,
    #255,#256,#257,#258,#259,#260,#261,#262,#263,#264,#265,#266,#267,
    #268,#269,#270,#271,#272,#273,#274,#275,#276,#277,#278,#279,#280,
    #281,#282,#283,#284,#285,#286,#287,#288,#289,#290,#291,#292),
  .UNSPECIFIED.,.T.,.F.,(8,6,6,6,6,6,6,8),(0.,0.151065133681,
    0.287014854889,0.424291492411,0.586758916344,0.713464257038,
    0.839586356735,1.),.UNSPECIFIED.);
#249 = CARTESIAN_POINT('',(1.25,7.90174031464,9.9));
#250 = CARTESIAN_POINT('',(1.25,7.90174031464,10.05051766491));
#251 = CARTESIAN_POINT('',(1.228855230445,7.905085159728,10.201081416215
    ));
#252 = CARTESIAN_POINT('',(1.186539333672,7.911779802547,10.349465376445
    ));
#253 = CARTESIAN_POINT('',(1.122662309957,7.921517867813,10.493247297008
    ));
#254 = CARTESIAN_POINT('',(1.03668455981,7.933657388976,10.629506725578)
  );
#255 = CARTESIAN_POINT('',(0.928070693205,7.947080894185,10.754528435613
    ));
#256 = CARTESIAN_POINT('',(0.67862608598,7.97204909977,10.960886961245)
  );
#257 = CARTESIAN_POINT('',(0.538833530719,7.983974142594,11.048050960742
    ));
#258 = CARTESIAN_POINT('',(0.380323373665,7.99436268894,11.115569336009)
  );
#259 = CARTESIAN_POINT('',(0.208767335899,8.001221972427,11.15730788807)
  );
#260 = CARTESIAN_POINT('',(3.139653647703E-02,8.003202730077,
    11.170048896681));
#261 = CARTESIAN_POINT('',(-0.144121133218,8.000442098959,
    11.153540821655));
#262 = CARTESIAN_POINT('',(-0.479231036744,7.987410625057,
    11.067499222502));
#263 = CARTESIAN_POINT('',(-0.633752302287,7.977258145518,
    10.998708139971));
#264 = CARTESIAN_POINT('',(-0.77142902728,7.964830559994,10.909376684873
    ));
#265 = CARTESIAN_POINT('',(-0.89054412489,7.951692007991,10.803989414112
    ));
#266 = CARTESIAN_POINT('',(-0.990182318966,7.939202479835,
    10.686742158774));
#267 = CARTESIAN_POINT('',(-1.07016003775,7.928337700256,10.561587477259
    ));
#268 = CARTESIAN_POINT('',(-1.203078163755,7.909355168527,
    10.279122081325));
#269 = CARTESIAN_POINT('',(-1.250299449736,7.901831183773,10.11601184609
    ));
#270 = CARTESIAN_POINT('',(-1.271664586569,7.898182666917,9.947108750711
    ));
#271 = CARTESIAN_POINT('',(-1.266633824607,7.899031687705,9.776572569916
    ));
#272 = CARTESIAN_POINT('',(-1.235154864214,7.904317155956,9.608617347412
    ));
#273 = CARTESIAN_POINT('',(-1.177701790998,7.913275193385,9.447544595576
    ));
#274 = CARTESIAN_POINT('',(-1.03118471963,7.933527480459,9.181031032145)
  );
#275 = CARTESIAN_POINT('',(-0.950511080766,7.944060159479,9.068690467711
    ));
#276 = CARTESIAN_POINT('',(-0.853037917708,7.955728615577,8.963960034698
    ));
#277 = CARTESIAN_POINT('',(-0.739075598009,7.96768776832,8.870146232852)
  );
#278 = CARTESIAN_POINT('',(-0.609538190168,7.978826477186,8.790671243712
    ));
#279 = CARTESIAN_POINT('',(-0.465977377086,7.987926022299,8.729097816083
    ));
#280 = CARTESIAN_POINT('',(-0.156461355227,7.999962222717,8.649627608835
    ));
#281 = CARTESIAN_POINT('',(5.963791751284E-03,8.002793376422,
    8.632410076052));
#282 = CARTESIAN_POINT('',(0.170716770147,8.001593449041,8.64029686787)
  );
#283 = CARTESIAN_POINT('',(0.331424977506,7.996173267034,8.673385288035)
  );
#284 = CARTESIAN_POINT('',(0.482002496104,7.987466103218,8.729359217392)
  );
#285 = CARTESIAN_POINT('',(0.617438246005,7.977007256272,8.803510172265)
  );
#286 = CARTESIAN_POINT('',(0.883915956797,7.952429684491,8.997117561921)
  );
#287 = CARTESIAN_POINT('',(1.007548788081,7.937739441648,9.126170046889)
  );
#288 = CARTESIAN_POINT('',(1.105371892816,7.924147253931,9.269179842401)
  );
#289 = CARTESIAN_POINT('',(1.177973120989,7.913135329794,9.421427561127)
  );
#290 = CARTESIAN_POINT('',(1.226010177661,7.90553512767,9.579252092188)
  );
#291 = CARTESIAN_POINT('',(1.25,7.90174031464,9.739675122424));
#292 = CARTESIAN_POINT('',(1.25,7.90174031464,9.9));
#293 = PCURVE('',#151,#294);
#294 = DEFINITIONAL_REPRESENTATION('',(#295),#365);
#295 = B_SPLINE_CURVE_WITH_KNOTS('',3,(#296,#297,#298,#299,#300,#301,
    #302,#303,#304,#305,#306,#307,#308,#309,#310,#311,#312,#313,#314,
    #315,#316,#317,#318,#319,#320,#321,#322,#323,#324,#325,#326,#327,
    #328,#329,#330,#331,#332,#333,#334,#335,#336,#337,#338,#339,#340,
    #341,#342,#343,#344,#345,#346,#347,#348,#349,#350,#351,#352,#353,
    #354,#355,#356,#357,#358,#359,#360,#361,#362,#363,#364),
  .UNSPECIFIED.,.T.,.F.,(4,1,1,1,1,1,1,1,1,1,1,1,1,1,1,1,1,1,1,1,1,1,1,1
    ,1,1,1,1,1,1,1,1,1,1,1,1,1,1,1,1,1,1,1,1,1,1,1,1,1,1,1,1,1,1,1,1,1,1
    ,1,1,1,1,1,1,1,1,4),(0.,1.515151515152E-02,3.030303030303E-02,
    4.545454545455E-02,6.060606060606E-02,7.575757575758E-02,
    9.090909090909E-02,0.106060606061,0.121212121212,0.136363636364,
    0.151515151515,0.166666666667,0.181818181818,0.19696969697,
    0.212121212121,0.227272727273,0.242424242424,0.257575757576,
    0.272727272727,0.287878787879,0.30303030303,0.318181818182,
    0.333333333333,0.348484848485,0.363636363636,0.378787878788,
    0.393939393939,0.409090909091,0.424242424242,0.439393939394,
    0.454545454545,0.469696969697,0.484848484848,0.5,0.515151515152,
    0.530303030303,0.545454545455,0.560606060606,0.575757575758,
    0.590909090909,0.606060606061,0.621212121212,0.636363636364,
    0.651515151515,0.666666666667,0.681818181818,0.69696969697,
    0.712121212121,0.727272727273,0.742424242424,0.757575757576,
    0.772727272727,0.787878787879,0.80303030303,0.818181818182,
    0.833333333333,0.848484848485,0.863636363636,0.878787878788,
    0.893939393939,0.909090909091,0.924242424242,0.939393939394,
    0.954545454545,0.969696969697,0.984848484848,1.),
  .QUASI_UNIFORM_KNOTS.);
#296 = CARTESIAN_POINT('',(1.413903455774,9.9));
#297 = CARTESIAN_POINT('',(1.413903664502,9.935223244116));
#298 = CARTESIAN_POINT('',(1.414280141818,10.005684247071));
#299 = CARTESIAN_POINT('',(1.415978072223,10.110909918908));
#300 = CARTESIAN_POINT('',(1.418813423127,10.215172443885));
#301 = CARTESIAN_POINT('',(1.422793301343,10.317932288999));
#302 = CARTESIAN_POINT('',(1.427925989303,10.418612385415));
#303 = CARTESIAN_POINT('',(1.434220278046,10.516583958567));
#304 = CARTESIAN_POINT('',(1.441685926447,10.611165544086));
#305 = CARTESIAN_POINT('',(1.450328334573,10.701583710928));
#306 = CARTESIAN_POINT('',(1.460164881432,10.787068226455));
#307 = CARTESIAN_POINT('',(1.471159902189,10.866441062072));
#308 = CARTESIAN_POINT('',(1.483463375563,10.939591467321));
#309 = CARTESIAN_POINT('',(1.497065277227,11.004836878742));
#310 = CARTESIAN_POINT('',(1.511763785142,11.059921446431));
#311 = CARTESIAN_POINT('',(1.52736870866,11.103224798165));
#312 = CARTESIAN_POINT('',(1.543655609042,11.13343857348));
#313 = CARTESIAN_POINT('',(1.560384105853,11.149659864915));
#314 = CARTESIAN_POINT('',(1.57730691485,11.151355228546));
#315 = CARTESIAN_POINT('',(1.594150241791,11.138432238255));
#316 = CARTESIAN_POINT('',(1.610716970552,11.111017784078));
#317 = CARTESIAN_POINT('',(1.626523895283,11.070316481847));
#318 = CARTESIAN_POINT('',(1.641321100801,11.018083680165));
#319 = CARTESIAN_POINT('',(1.655073429938,10.955543867715));
#320 = CARTESIAN_POINT('',(1.667707019514,10.883998552785));
#321 = CARTESIAN_POINT('',(1.679175496867,10.804673344648));
#322 = CARTESIAN_POINT('',(1.689441575867,10.718757889667));
#323 = CARTESIAN_POINT('',(1.698479681894,10.627426827884));
#324 = CARTESIAN_POINT('',(1.706280947141,10.531736336662));
#325 = CARTESIAN_POINT('',(1.712829201578,10.433030711785));
#326 = CARTESIAN_POINT('',(1.718191762617,10.331427500315));
#327 = CARTESIAN_POINT('',(1.72240354642,10.226679136028));
#328 = CARTESIAN_POINT('',(1.725430608427,10.119758603535));
#329 = CARTESIAN_POINT('',(1.727263100003,10.011311266983));
#330 = CARTESIAN_POINT('',(1.727890550781,9.902071716313));
#331 = CARTESIAN_POINT('',(1.727308597238,9.792753081393));
#332 = CARTESIAN_POINT('',(1.725517514423,9.684080580468));
#333 = CARTESIAN_POINT('',(1.722521994267,9.576774940091));
#334 = CARTESIAN_POINT('',(1.71833403705,9.471591571848));
#335 = CARTESIAN_POINT('',(1.71296205226,9.369186527942));
#336 = CARTESIAN_POINT('',(1.706451932117,9.27061946253));
#337 = CARTESIAN_POINT('',(1.698710144973,9.175157385345));
#338 = CARTESIAN_POINT('',(1.689717760537,9.083793188322));
#339 = CARTESIAN_POINT('',(1.67949256476,8.997750045134));
#340 = CARTESIAN_POINT('',(1.668059307264,8.918217120496));
#341 = CARTESIAN_POINT('',(1.655458385725,8.846423824504));
#342 = CARTESIAN_POINT('',(1.641740521865,8.783614291162));
#343 = CARTESIAN_POINT('',(1.626980529685,8.731088715099));
#344 = CARTESIAN_POINT('',(1.611230598085,8.690084124417));
#345 = CARTESIAN_POINT('',(1.594698696688,8.662238437107));
#346 = CARTESIAN_POINT('',(1.577847481879,8.648825035236));
#347 = CARTESIAN_POINT('',(1.56089307834,8.650064785103));
#348 = CARTESIAN_POINT('',(1.544118411946,8.665903604984));
#349 = CARTESIAN_POINT('',(1.527783040207,8.695813925426));
#350 = CARTESIAN_POINT('',(1.512138863131,8.738859397748));
#351 = CARTESIAN_POINT('',(1.497420004345,8.793660275));
#352 = CARTESIAN_POINT('',(1.48382928302,8.85848452436));
#353 = CARTESIAN_POINT('',(1.47156242842,8.930928288766));
#354 = CARTESIAN_POINT('',(1.460471870371,9.010477703769));
#355 = CARTESIAN_POINT('',(1.450579009426,9.096020370377));
#356 = CARTESIAN_POINT('',(1.441876234084,9.186628221575));
#357 = CARTESIAN_POINT('',(1.434359577745,9.281445930603));
#358 = CARTESIAN_POINT('',(1.428021283099,9.379704649616));
#359 = CARTESIAN_POINT('',(1.42285296266,9.480703919588));
#360 = CARTESIAN_POINT('',(1.418845776171,9.583803232099));
#361 = CARTESIAN_POINT('',(1.415991416716,9.688413305587));
#362 = CARTESIAN_POINT('',(1.414282471226,9.793984171036));
#363 = CARTESIAN_POINT('',(1.41390365519,9.864668357452));
#364 = CARTESIAN_POINT('',(1.413903455774,9.9));
#365 = ( GEOMETRIC_REPRESENTATION_CONTEXT(2) 
PARAMETRIC_REPRESENTATION_CONTEXT() REPRESENTATION_CONTEXT('2D SPACE',''
  ) );
#366 = PCURVE('',#367,#372);
#367 = CYLINDRICAL_SURFACE('',#368,1.25);
#368 = AXIS2_PLACEMENT_3D('',#369,#370,#371);
#369 = CARTESIAN_POINT('',(0.,8.,9.9));
#370 = DIRECTION('',(-0.,1.,-0.));
#371 = DIRECTION('',(1.,0.,0.));
#372 = DEFINITIONAL_REPRESENTATION('',(#373),#443);
#373 = B_SPLINE_CURVE_WITH_KNOTS('',3,(#374,#375,#376,#377,#378,#379,
    #380,#381,#382,#383,#384,#385,#386,#387,#388,#389,#390,#391,#392,
    #393,#394,#395,#396,#397,#398,#399,#400,#401,#402,#403,#404,#405,
    #406,#407,#408,#409,#410,#411,#412,#413,#414,#415,#416,#417,#418,
    #419,#420,#421,#422,#423,#424,#425,#426,#427,#428,#429,#430,#431,
    #432,#433,#434,#435,#436,#437,#438,#439,#440,#441,#442),
  .UNSPECIFIED.,.F.,.F.,(4,1,1,1,1,1,1,1,1,1,1,1,1,1,1,1,1,1,1,1,1,1,1,1
    ,1,1,1,1,1,1,1,1,1,1,1,1,1,1,1,1,1,1,1,1,1,1,1,1,1,1,1,1,1,1,1,1,1,1
    ,1,1,1,1,1,1,1,1,4),(0.,1.515151515152E-02,3.030303030303E-02,
    4.545454545455E-02,6.060606060606E-02,7.575757575758E-02,
    9.090909090909E-02,0.106060606061,0.121212121212,0.136363636364,
    0.151515151515,0.166666666667,0.181818181818,0.19696969697,
    0.212121212121,0.227272727273,0.242424242424,0.257575757576,
    0.272727272727,0.287878787879,0.30303030303,0.318181818182,
    0.333333333333,0.348484848485,0.363636363636,0.378787878788,
    0.393939393939,0.409090909091,0.424242424242,0.439393939394,
    0.454545454545,0.469696969697,0.484848484848,0.5,0.515151515152,
    0.530303030303,0.545454545455,0.560606060606,0.575757575758,
    0.590909090909,0.606060606061,0.621212121212,0.636363636364,
    0.651515151515,0.666666666667,0.681818181818,0.69696969697,
    0.712121212121,0.727272727273,0.742424242424,0.757575757576,
    0.772727272727,0.787878787879,0.80303030303,0.818181818182,
    0.833333333333,0.848484848485,0.863636363636,0.878787878788,
    0.893939393939,0.909090909091,0.924242424242,0.939393939394,
    0.954545454545,0.969696969697,0.984848484848,1.),
  .QUASI_UNIFORM_KNOTS.);
#374 = CARTESIAN_POINT('',(0.,-9.825968536045E-02));
#375 = CARTESIAN_POINT('',(-2.817977061833E-02,-9.82619888126E-02));
#376 = CARTESIAN_POINT('',(-8.454675489002E-02,-9.778680510151E-02));
#377 = CARTESIAN_POINT('',(-0.169333394433,-9.567726171132E-02));
#378 = CARTESIAN_POINT('',(-0.25457169785,-9.220240292989E-02));
#379 = CARTESIAN_POINT('',(-0.340471332398,-8.743271175583E-02));
#380 = CARTESIAN_POINT('',(-0.427243847097,-8.14661945471E-02));
#381 = CARTESIAN_POINT('',(-0.515102817749,-7.443394315609E-02));
#382 = CARTESIAN_POINT('',(-0.604277637937,-6.650005143185E-02));
#383 = CARTESIAN_POINT('',(-0.694980369569,-5.786711465594E-02));
#384 = CARTESIAN_POINT('',(-0.787548705381,-4.876423999345E-02));
#385 = CARTESIAN_POINT('',(-0.881935957445,-3.94977544394E-02));
#386 = CARTESIAN_POINT('',(-0.979649333998,-3.026561628166E-02));
#387 = CARTESIAN_POINT('',(-1.08077877464,-2.146790858203E-02));
#388 = CARTESIAN_POINT('',(-1.184333066839,-1.362854736106E-02));
#389 = CARTESIAN_POINT('',(-1.289773369582,-7.20237149138E-03));
#390 = CARTESIAN_POINT('',(-1.396562428538,-2.581433439308E-03));
#391 = CARTESIAN_POINT('',(-1.504236556762,-5.403574126865E-05));
#392 = CARTESIAN_POINT('',(-1.612397041424,2.119907871519E-04));
#393 = CARTESIAN_POINT('',(-1.720521336026,-1.80703560252E-03));
#394 = CARTESIAN_POINT('',(-1.828586699044,-6.021639434016E-03));
#395 = CARTESIAN_POINT('',(-1.934603785243,-1.210690922432E-02));
#396 = CARTESIAN_POINT('',(-2.037805434135,-1.961571175262E-02));
#397 = CARTESIAN_POINT('',(-2.138689351654,-2.816231040919E-02));
#398 = CARTESIAN_POINT('',(-2.23736088513,-3.734473134406E-02));
#399 = CARTESIAN_POINT('',(-2.333983204309,-4.678182602314E-02));
#400 = CARTESIAN_POINT('',(-2.428668215858,-5.611769387616E-02));
#401 = CARTESIAN_POINT('',(-2.521485277757,-6.503012455857E-02));
#402 = CARTESIAN_POINT('',(-2.612549987018,-7.324450083599E-02));
#403 = CARTESIAN_POINT('',(-2.701668928294,-8.05114813153E-02));
#404 = CARTESIAN_POINT('',(-2.789675265795,-8.671448789884E-02));
#405 = CARTESIAN_POINT('',(-2.877526103447,-9.174601917614E-02));
#406 = CARTESIAN_POINT('',(-2.965094772653,-9.544914408587E-02));
#407 = CARTESIAN_POINT('',(-3.052539327638,-9.772610039092E-02));
#408 = CARTESIAN_POINT('',(-3.139937386766,-9.851185460339E-02));
#409 = CARTESIAN_POINT('',(-3.227386071479,-9.778297327172E-02));
#410 = CARTESIAN_POINT('',(-3.314974315154,-9.555647297368E-02));
#411 = CARTESIAN_POINT('',(-3.402800110271,-9.188952332206E-02));
#412 = CARTESIAN_POINT('',(-3.490935449002,-8.688172883047E-02));
#413 = CARTESIAN_POINT('',(-3.579555634259,-8.066210236032E-02));
#414 = CARTESIAN_POINT('',(-3.668463764226,-7.343044383663E-02));
#415 = CARTESIAN_POINT('',(-3.759171167443,-6.526631891136E-02));
#416 = CARTESIAN_POINT('',(-3.851829355371,-5.638060729385E-02));
#417 = CARTESIAN_POINT('',(-3.946408536016,-4.705770330335E-02));
#418 = CARTESIAN_POINT('',(-4.042969337045,-3.761897727358E-02));
#419 = CARTESIAN_POINT('',(-4.14158453594,-2.842333938397E-02));
#420 = CARTESIAN_POINT('',(-4.242382517318,-1.985410697248E-02));
#421 = CARTESIAN_POINT('',(-4.345460233631,-1.231321326454E-02));
#422 = CARTESIAN_POINT('',(-4.451204287137,-6.189014589596E-03));
#423 = CARTESIAN_POINT('',(-4.559120969665,-1.911239727858E-03));
#424 = CARTESIAN_POINT('',(-4.667332396593,1.836879416393E-04));
#425 = CARTESIAN_POINT('',(-4.775690293233,-1.088414723281E-05));
#426 = CARTESIAN_POINT('',(-4.88362132731,-2.479620623596E-03));
#427 = CARTESIAN_POINT('',(-4.990658398695,-7.057174502156E-03));
#428 = CARTESIAN_POINT('',(-5.096269728763,-1.345083349695E-02));
#429 = CARTESIAN_POINT('',(-5.199846987599,-2.125905463566E-02));
#430 = CARTESIAN_POINT('',(-5.300745977528,-3.001230046403E-02));
#431 = CARTESIAN_POINT('',(-5.397937582542,-3.917712015045E-02));
#432 = CARTESIAN_POINT('',(-5.492872285622,-4.849080821506E-02));
#433 = CARTESIAN_POINT('',(-5.585716028099,-5.762519266445E-02));
#434 = CARTESIAN_POINT('',(-5.676772124262,-6.630287502938E-02));
#435 = CARTESIAN_POINT('',(-5.766278141241,-7.428146892302E-02));
#436 = CARTESIAN_POINT('',(-5.854467908557,-8.135707595443E-02));
#437 = CARTESIAN_POINT('',(-5.941560894978,-8.73619677214E-02));
#438 = CARTESIAN_POINT('',(-6.027770059103,-9.216300993134E-02));
#439 = CARTESIAN_POINT('',(-6.113304664975,-9.566072265663E-02));
#440 = CARTESIAN_POINT('',(-6.198373330766,-9.778387157671E-02));
#441 = CARTESIAN_POINT('',(-6.254918763631,-9.82620396702E-02));
#442 = CARTESIAN_POINT('',(-6.28318530718,-9.825968536045E-02));
#443 = ( GEOMETRIC_REPRESENTATION_CONTEXT(2) 
PARAMETRIC_REPRESENTATION_CONTEXT() REPRESENTATION_CONTEXT('2D SPACE',''
  ) );
#444 = ADVANCED_FACE('',(#445),#367,.F.);
#445 = FACE_BOUND('',#446,.T.);
#446 = EDGE_LOOP('',(#447,#448,#471,#498));
#447 = ORIENTED_EDGE('',*,*,#244,.F.);
#448 = ORIENTED_EDGE('',*,*,#449,.T.);
#449 = EDGE_CURVE('',#245,#450,#452,.T.);
#450 = VERTEX_POINT('',#451);
#451 = CARTESIAN_POINT('',(1.25,2.15,9.9));
#452 = SEAM_CURVE('',#453,(#457,#464),.PCURVE_S1.);
#453 = LINE('',#454,#455);
#454 = CARTESIAN_POINT('',(1.25,8.,9.9));
#455 = VECTOR('',#456,1.);
#456 = DIRECTION('',(0.,-1.,0.));
#457 = PCURVE('',#367,#458);
#458 = DEFINITIONAL_REPRESENTATION('',(#459),#463);
#459 = LINE('',#460,#461);
#460 = CARTESIAN_POINT('',(-0.,0.));
#461 = VECTOR('',#462,1.);
#462 = DIRECTION('',(-0.,-1.));
#463 = ( GEOMETRIC_REPRESENTATION_CONTEXT(2) 
PARAMETRIC_REPRESENTATION_CONTEXT() REPRESENTATION_CONTEXT('2D SPACE',''
  ) );
#464 = PCURVE('',#367,#465);
#465 = DEFINITIONAL_REPRESENTATION('',(#466),#470);
#466 = LINE('',#467,#468);
#467 = CARTESIAN_POINT('',(-6.28318530718,0.));
#468 = VECTOR('',#469,1.);
#469 = DIRECTION('',(-0.,-1.));
#470 = ( GEOMETRIC_REPRESENTATION_CONTEXT(2) 
PARAMETRIC_REPRESENTATION_CONTEXT() REPRESENTATION_CONTEXT('2D SPACE',''
  ) );
#471 = ORIENTED_EDGE('',*,*,#472,.F.);
#472 = EDGE_CURVE('',#450,#450,#473,.T.);
#473 = SURFACE_CURVE('',#474,(#479,#486),.PCURVE_S1.);
#474 = CIRCLE('',#475,1.25);
#475 = AXIS2_PLACEMENT_3D('',#476,#477,#478);
#476 = CARTESIAN_POINT('',(0.,2.15,9.9));
#477 = DIRECTION('',(-0.,1.,0.));
#478 = DIRECTION('',(1.,0.,0.));
#479 = PCURVE('',#367,#480);
#480 = DEFINITIONAL_REPRESENTATION('',(#481),#485);
#481 = LINE('',#482,#483);
#482 = CARTESIAN_POINT('',(-6.28318530718,-5.85));
#483 = VECTOR('',#484,1.);
#484 = DIRECTION('',(1.,-0.));
#485 = ( GEOMETRIC_REPRESENTATION_CONTEXT(2) 
PARAMETRIC_REPRESENTATION_CONTEXT() REPRESENTATION_CONTEXT('2D SPACE',''
  ) );
#486 = PCURVE('',#487,#492);
#487 = PLANE('',#488);
#488 = AXIS2_PLACEMENT_3D('',#489,#490,#491);
#489 = CARTESIAN_POINT('',(-1.549193338483,2.15,0.));
#490 = DIRECTION('',(0.,1.,0.));
#491 = DIRECTION('',(1.,0.,0.));
#492 = DEFINITIONAL_REPRESENTATION('',(#493),#497);
#493 = CIRCLE('',#494,1.25);
#494 = AXIS2_PLACEMENT_2D('',#495,#496);
#495 = CARTESIAN_POINT('',(1.549193338483,-9.9));
#496 = DIRECTION('',(1.,0.));
#497 = ( GEOMETRIC_REPRESENTATION_CONTEXT(2) 
PARAMETRIC_REPRESENTATION_CONTEXT() REPRESENTATION_CONTEXT('2D SPACE',''
  ) );
#498 = ORIENTED_EDGE('',*,*,#449,.F.);
#499 = ADVANCED_FACE('',(#500,#607),#487,.F.);
#500 = FACE_BOUND('',#501,.F.);
#501 = EDGE_LOOP('',(#502,#530,#558,#586));
#502 = ORIENTED_EDGE('',*,*,#503,.F.);
#503 = EDGE_CURVE('',#504,#506,#508,.T.);
#504 = VERTEX_POINT('',#505);
#505 = CARTESIAN_POINT('',(-1.549193338483,2.15,0.6));
#506 = VERTEX_POINT('',#507);
#507 = CARTESIAN_POINT('',(1.549193338483,2.15,0.6));
#508 = SURFACE_CURVE('',#509,(#513,#519),.PCURVE_S1.);
#509 = LINE('',#510,#511);
#510 = CARTESIAN_POINT('',(-0.774596669241,2.15,0.6));
#511 = VECTOR('',#512,1.);
#512 = DIRECTION('',(1.,0.,0.));
#513 = PCURVE('',#487,#514);
#514 = DEFINITIONAL_REPRESENTATION('',(#515),#518);
#515 = B_SPLINE_CURVE_WITH_KNOTS('',1,(#516,#517),.UNSPECIFIED.,.F.,.F.,
  (2,2),(-0.774596669241,2.323790007724),.PIECEWISE_BEZIER_KNOTS.);
#516 = CARTESIAN_POINT('',(0.,-0.6));
#517 = CARTESIAN_POINT('',(3.098386676966,-0.6));
#518 = ( GEOMETRIC_REPRESENTATION_CONTEXT(2) 
PARAMETRIC_REPRESENTATION_CONTEXT() REPRESENTATION_CONTEXT('2D SPACE',''
  ) );
#519 = PCURVE('',#520,#525);
#520 = PLANE('',#521);
#521 = AXIS2_PLACEMENT_3D('',#522,#523,#524);
#522 = CARTESIAN_POINT('',(0.,0.,0.6));
#523 = DIRECTION('',(0.,0.,1.));
#524 = DIRECTION('',(1.,0.,-0.));
#525 = DEFINITIONAL_REPRESENTATION('',(#526),#529);
#526 = B_SPLINE_CURVE_WITH_KNOTS('',1,(#527,#528),.UNSPECIFIED.,.F.,.F.,
  (2,2),(-0.774596669241,2.323790007724),.PIECEWISE_BEZIER_KNOTS.);
#527 = CARTESIAN_POINT('',(-1.549193338483,2.15));
#528 = CARTESIAN_POINT('',(1.549193338483,2.15));
#529 = ( GEOMETRIC_REPRESENTATION_CONTEXT(2) 
PARAMETRIC_REPRESENTATION_CONTEXT() REPRESENTATION_CONTEXT('2D SPACE',''
  ) );
#530 = ORIENTED_EDGE('',*,*,#531,.T.);
#531 = EDGE_CURVE('',#504,#532,#534,.T.);
#532 = VERTEX_POINT('',#533);
#533 = CARTESIAN_POINT('',(-1.549193338483,2.15,18.));
#534 = SURFACE_CURVE('',#535,(#539,#546),.PCURVE_S1.);
#535 = LINE('',#536,#537);
#536 = CARTESIAN_POINT('',(-1.549193338483,2.15,0.));
#537 = VECTOR('',#538,1.);
#538 = DIRECTION('',(0.,0.,1.));
#539 = PCURVE('',#487,#540);
#540 = DEFINITIONAL_REPRESENTATION('',(#541),#545);
#541 = LINE('',#542,#543);
#542 = CARTESIAN_POINT('',(0.,0.));
#543 = VECTOR('',#544,1.);
#544 = DIRECTION('',(0.,-1.));
#545 = ( GEOMETRIC_REPRESENTATION_CONTEXT(2) 
PARAMETRIC_REPRESENTATION_CONTEXT() REPRESENTATION_CONTEXT('2D SPACE',''
  ) );
#546 = PCURVE('',#547,#552);
#547 = CYLINDRICAL_SURFACE('',#548,2.65);
#548 = AXIS2_PLACEMENT_3D('',#549,#550,#551);
#549 = CARTESIAN_POINT('',(0.,0.,0.));
#550 = DIRECTION('',(-0.,-0.,-1.));
#551 = DIRECTION('',(-0.584601259805,0.811320754717,0.));
#552 = DEFINITIONAL_REPRESENTATION('',(#553),#557);
#553 = LINE('',#554,#555);
#554 = CARTESIAN_POINT('',(-0.,0.));
#555 = VECTOR('',#556,1.);
#556 = DIRECTION('',(-0.,-1.));
#557 = ( GEOMETRIC_REPRESENTATION_CONTEXT(2) 
PARAMETRIC_REPRESENTATION_CONTEXT() REPRESENTATION_CONTEXT('2D SPACE',''
  ) );
#558 = ORIENTED_EDGE('',*,*,#559,.T.);
#559 = EDGE_CURVE('',#532,#560,#562,.T.);
#560 = VERTEX_POINT('',#561);
#561 = CARTESIAN_POINT('',(1.549193338483,2.15,18.));
#562 = SURFACE_CURVE('',#563,(#567,#574),.PCURVE_S1.);
#563 = LINE('',#564,#565);
#564 = CARTESIAN_POINT('',(0.,2.15,18.));
#565 = VECTOR('',#566,1.);
#566 = DIRECTION('',(1.,0.,0.));
#567 = PCURVE('',#487,#568);
#568 = DEFINITIONAL_REPRESENTATION('',(#569),#573);
#569 = LINE('',#570,#571);
#570 = CARTESIAN_POINT('',(1.549193338483,-18.));
#571 = VECTOR('',#572,1.);
#572 = DIRECTION('',(1.,0.));
#573 = ( GEOMETRIC_REPRESENTATION_CONTEXT(2) 
PARAMETRIC_REPRESENTATION_CONTEXT() REPRESENTATION_CONTEXT('2D SPACE',''
  ) );
#574 = PCURVE('',#575,#580);
#575 = PLANE('',#576);
#576 = AXIS2_PLACEMENT_3D('',#577,#578,#579);
#577 = CARTESIAN_POINT('',(-2.580075721772E-16,1.498304382526E-16,18.));
#578 = DIRECTION('',(0.,0.,1.));
#579 = DIRECTION('',(1.,0.,0.));
#580 = DEFINITIONAL_REPRESENTATION('',(#581),#585);
#581 = LINE('',#582,#583);
#582 = CARTESIAN_POINT('',(2.580075721772E-16,2.15));
#583 = VECTOR('',#584,1.);
#584 = DIRECTION('',(1.,0.));
#585 = ( GEOMETRIC_REPRESENTATION_CONTEXT(2) 
PARAMETRIC_REPRESENTATION_CONTEXT() REPRESENTATION_CONTEXT('2D SPACE',''
  ) );
#586 = ORIENTED_EDGE('',*,*,#587,.F.);
#587 = EDGE_CURVE('',#506,#560,#588,.T.);
#588 = SURFACE_CURVE('',#589,(#593,#600),.PCURVE_S1.);
#589 = LINE('',#590,#591);
#590 = CARTESIAN_POINT('',(1.549193338483,2.15,0.));
#591 = VECTOR('',#592,1.);
#592 = DIRECTION('',(0.,0.,1.));
#593 = PCURVE('',#487,#594);
#594 = DEFINITIONAL_REPRESENTATION('',(#595),#599);
#595 = LINE('',#596,#597);
#596 = CARTESIAN_POINT('',(3.098386676966,0.));
#597 = VECTOR('',#598,1.);
#598 = DIRECTION('',(0.,-1.));
#599 = ( GEOMETRIC_REPRESENTATION_CONTEXT(2) 
PARAMETRIC_REPRESENTATION_CONTEXT() REPRESENTATION_CONTEXT('2D SPACE',''
  ) );
#600 = PCURVE('',#547,#601);
#601 = DEFINITIONAL_REPRESENTATION('',(#602),#606);
#602 = LINE('',#603,#604);
#603 = CARTESIAN_POINT('',(-5.03440830675,0.));
#604 = VECTOR('',#605,1.);
#605 = DIRECTION('',(-0.,-1.));
#606 = ( GEOMETRIC_REPRESENTATION_CONTEXT(2) 
PARAMETRIC_REPRESENTATION_CONTEXT() REPRESENTATION_CONTEXT('2D SPACE',''
  ) );
#607 = FACE_BOUND('',#608,.F.);
#608 = EDGE_LOOP('',(#609));
#609 = ORIENTED_EDGE('',*,*,#472,.F.);
#610 = ADVANCED_FACE('',(#611),#575,.F.);
#611 = FACE_BOUND('',#612,.F.);
#612 = EDGE_LOOP('',(#613,#635));
#613 = ORIENTED_EDGE('',*,*,#614,.T.);
#614 = EDGE_CURVE('',#532,#560,#615,.T.);
#615 = SURFACE_CURVE('',#616,(#621,#628),.PCURVE_S1.);
#616 = CIRCLE('',#617,2.65);
#617 = AXIS2_PLACEMENT_3D('',#618,#619,#620);
#618 = CARTESIAN_POINT('',(0.,0.,18.));
#619 = DIRECTION('',(0.,0.,1.));
#620 = DIRECTION('',(-0.584601259805,0.811320754717,0.));
#621 = PCURVE('',#575,#622);
#622 = DEFINITIONAL_REPRESENTATION('',(#623),#627);
#623 = CIRCLE('',#624,2.65);
#624 = AXIS2_PLACEMENT_2D('',#625,#626);
#625 = CARTESIAN_POINT('',(2.580075721772E-16,-1.498304382526E-16));
#626 = DIRECTION('',(-0.584601259805,0.811320754717));
#627 = ( GEOMETRIC_REPRESENTATION_CONTEXT(2) 
PARAMETRIC_REPRESENTATION_CONTEXT() REPRESENTATION_CONTEXT('2D SPACE',''
  ) );
#628 = PCURVE('',#547,#629);
#629 = DEFINITIONAL_REPRESENTATION('',(#630),#634);
#630 = LINE('',#631,#632);
#631 = CARTESIAN_POINT('',(-0.,-18.));
#632 = VECTOR('',#633,1.);
#633 = DIRECTION('',(-1.,0.));
#634 = ( GEOMETRIC_REPRESENTATION_CONTEXT(2) 
PARAMETRIC_REPRESENTATION_CONTEXT() REPRESENTATION_CONTEXT('2D SPACE',''
  ) );
#635 = ORIENTED_EDGE('',*,*,#559,.F.);
#636 = ADVANCED_FACE('',(#637),#547,.F.);
#637 = FACE_BOUND('',#638,.T.);
#638 = EDGE_LOOP('',(#639,#668,#669,#670,#671));
#639 = ORIENTED_EDGE('',*,*,#640,.F.);
#640 = EDGE_CURVE('',#504,#641,#643,.T.);
#641 = VERTEX_POINT('',#642);
#642 = CARTESIAN_POINT('',(2.65,-6.490628035481E-16,0.6));
#643 = SURFACE_CURVE('',#644,(#649,#656),.PCURVE_S1.);
#644 = CIRCLE('',#645,2.65);
#645 = AXIS2_PLACEMENT_3D('',#646,#647,#648);
#646 = CARTESIAN_POINT('',(0.,0.,0.6));
#647 = DIRECTION('',(0.,0.,1.));
#648 = DIRECTION('',(1.,0.,-0.));
#649 = PCURVE('',#547,#650);
#650 = DEFINITIONAL_REPRESENTATION('',(#651),#655);
#651 = LINE('',#652,#653);
#652 = CARTESIAN_POINT('',(2.19518482701,-0.6));
#653 = VECTOR('',#654,1.);
#654 = DIRECTION('',(-1.,0.));
#655 = ( GEOMETRIC_REPRESENTATION_CONTEXT(2) 
PARAMETRIC_REPRESENTATION_CONTEXT() REPRESENTATION_CONTEXT('2D SPACE',''
  ) );
#656 = PCURVE('',#657,#662);
#657 = CONICAL_SURFACE('',#658,3.25,0.785398163397);
#658 = AXIS2_PLACEMENT_3D('',#659,#660,#661);
#659 = CARTESIAN_POINT('',(0.,0.,0.));
#660 = DIRECTION('',(-0.,-0.,-1.));
#661 = DIRECTION('',(1.,0.,-0.));
#662 = DEFINITIONAL_REPRESENTATION('',(#663),#667);
#663 = LINE('',#664,#665);
#664 = CARTESIAN_POINT('',(-0.,-0.6));
#665 = VECTOR('',#666,1.);
#666 = DIRECTION('',(-1.,-0.));
#667 = ( GEOMETRIC_REPRESENTATION_CONTEXT(2) 
PARAMETRIC_REPRESENTATION_CONTEXT() REPRESENTATION_CONTEXT('2D SPACE',''
  ) );
#668 = ORIENTED_EDGE('',*,*,#531,.T.);
#669 = ORIENTED_EDGE('',*,*,#614,.T.);
#670 = ORIENTED_EDGE('',*,*,#587,.F.);
#671 = ORIENTED_EDGE('',*,*,#672,.F.);
#672 = EDGE_CURVE('',#641,#506,#673,.T.);
#673 = SURFACE_CURVE('',#674,(#679,#686),.PCURVE_S1.);
#674 = CIRCLE('',#675,2.65);
#675 = AXIS2_PLACEMENT_3D('',#676,#677,#678);
#676 = CARTESIAN_POINT('',(0.,0.,0.6));
#677 = DIRECTION('',(0.,0.,1.));
#678 = DIRECTION('',(1.,0.,-0.));
#679 = PCURVE('',#547,#680);
#680 = DEFINITIONAL_REPRESENTATION('',(#681),#685);
#681 = LINE('',#682,#683);
#682 = CARTESIAN_POINT('',(-4.08800048017,-0.6));
#683 = VECTOR('',#684,1.);
#684 = DIRECTION('',(-1.,0.));
#685 = ( GEOMETRIC_REPRESENTATION_CONTEXT(2) 
PARAMETRIC_REPRESENTATION_CONTEXT() REPRESENTATION_CONTEXT('2D SPACE',''
  ) );
#686 = PCURVE('',#657,#687);
#687 = DEFINITIONAL_REPRESENTATION('',(#688),#692);
#688 = LINE('',#689,#690);
#689 = CARTESIAN_POINT('',(-0.,-0.6));
#690 = VECTOR('',#691,1.);
#691 = DIRECTION('',(-1.,-0.));
#692 = ( GEOMETRIC_REPRESENTATION_CONTEXT(2) 
PARAMETRIC_REPRESENTATION_CONTEXT() REPRESENTATION_CONTEXT('2D SPACE',''
  ) );
#693 = ADVANCED_FACE('',(#694),#657,.F.);
#694 = FACE_BOUND('',#695,.F.);
#695 = EDGE_LOOP('',(#696,#719,#720,#742,#743,#744));
#696 = ORIENTED_EDGE('',*,*,#697,.T.);
#697 = EDGE_CURVE('',#698,#641,#700,.T.);
#698 = VERTEX_POINT('',#699);
#699 = CARTESIAN_POINT('',(3.25,-7.960204194458E-16,0.));
#700 = SEAM_CURVE('',#701,(#705,#712),.PCURVE_S1.);
#701 = LINE('',#702,#703);
#702 = CARTESIAN_POINT('',(3.25,-7.960204194458E-16,0.));
#703 = VECTOR('',#704,1.);
#704 = DIRECTION('',(-0.707106781187,1.731912112471E-16,0.707106781187)
  );
#705 = PCURVE('',#657,#706);
#706 = DEFINITIONAL_REPRESENTATION('',(#707),#711);
#707 = LINE('',#708,#709);
#708 = CARTESIAN_POINT('',(-6.28318530718,0.));
#709 = VECTOR('',#710,1.);
#710 = DIRECTION('',(-0.,-1.));
#711 = ( GEOMETRIC_REPRESENTATION_CONTEXT(2) 
PARAMETRIC_REPRESENTATION_CONTEXT() REPRESENTATION_CONTEXT('2D SPACE',''
  ) );
#712 = PCURVE('',#657,#713);
#713 = DEFINITIONAL_REPRESENTATION('',(#714),#718);
#714 = LINE('',#715,#716);
#715 = CARTESIAN_POINT('',(0.,-0.));
#716 = VECTOR('',#717,1.);
#717 = DIRECTION('',(-0.,-1.));
#718 = ( GEOMETRIC_REPRESENTATION_CONTEXT(2) 
PARAMETRIC_REPRESENTATION_CONTEXT() REPRESENTATION_CONTEXT('2D SPACE',''
  ) );
#719 = ORIENTED_EDGE('',*,*,#640,.F.);
#720 = ORIENTED_EDGE('',*,*,#721,.F.);
#721 = EDGE_CURVE('',#506,#504,#722,.T.);
#722 = SURFACE_CURVE('',#723,(#728,#735),.PCURVE_S1.);
#723 = CIRCLE('',#724,2.65);
#724 = AXIS2_PLACEMENT_3D('',#725,#726,#727);
#725 = CARTESIAN_POINT('',(0.,0.,0.6));
#726 = DIRECTION('',(0.,0.,1.));
#727 = DIRECTION('',(1.,0.,-0.));
#728 = PCURVE('',#657,#729);
#729 = DEFINITIONAL_REPRESENTATION('',(#730),#734);
#730 = LINE('',#731,#732);
#731 = CARTESIAN_POINT('',(-0.,-0.6));
#732 = VECTOR('',#733,1.);
#733 = DIRECTION('',(-1.,-0.));
#734 = ( GEOMETRIC_REPRESENTATION_CONTEXT(2) 
PARAMETRIC_REPRESENTATION_CONTEXT() REPRESENTATION_CONTEXT('2D SPACE',''
  ) );
#735 = PCURVE('',#520,#736);
#736 = DEFINITIONAL_REPRESENTATION('',(#737),#741);
#737 = CIRCLE('',#738,2.65);
#738 = AXIS2_PLACEMENT_2D('',#739,#740);
#739 = CARTESIAN_POINT('',(0.,0.));
#740 = DIRECTION('',(1.,0.));
#741 = ( GEOMETRIC_REPRESENTATION_CONTEXT(2) 
PARAMETRIC_REPRESENTATION_CONTEXT() REPRESENTATION_CONTEXT('2D SPACE',''
  ) );
#742 = ORIENTED_EDGE('',*,*,#672,.F.);
#743 = ORIENTED_EDGE('',*,*,#697,.F.);
#744 = ORIENTED_EDGE('',*,*,#745,.T.);
#745 = EDGE_CURVE('',#698,#698,#746,.T.);
#746 = SURFACE_CURVE('',#747,(#752,#759),.PCURVE_S1.);
#747 = CIRCLE('',#748,3.25);
#748 = AXIS2_PLACEMENT_3D('',#749,#750,#751);
#749 = CARTESIAN_POINT('',(0.,0.,0.));
#750 = DIRECTION('',(0.,0.,1.));
#751 = DIRECTION('',(1.,0.,-0.));
#752 = PCURVE('',#657,#753);
#753 = DEFINITIONAL_REPRESENTATION('',(#754),#758);
#754 = LINE('',#755,#756);
#755 = CARTESIAN_POINT('',(-0.,-0.));
#756 = VECTOR('',#757,1.);
#757 = DIRECTION('',(-1.,-0.));
#758 = ( GEOMETRIC_REPRESENTATION_CONTEXT(2) 
PARAMETRIC_REPRESENTATION_CONTEXT() REPRESENTATION_CONTEXT('2D SPACE',''
  ) );
#759 = PCURVE('',#760,#765);
#760 = PLANE('',#761);
#761 = AXIS2_PLACEMENT_3D('',#762,#763,#764);
#762 = CARTESIAN_POINT('',(0.,0.,0.));
#763 = DIRECTION('',(0.,0.,1.));
#764 = DIRECTION('',(1.,0.,-0.));
#765 = DEFINITIONAL_REPRESENTATION('',(#766),#770);
#766 = CIRCLE('',#767,3.25);
#767 = AXIS2_PLACEMENT_2D('',#768,#769);
#768 = CARTESIAN_POINT('',(0.,0.));
#769 = DIRECTION('',(1.,0.));
#770 = ( GEOMETRIC_REPRESENTATION_CONTEXT(2) 
PARAMETRIC_REPRESENTATION_CONTEXT() REPRESENTATION_CONTEXT('2D SPACE',''
  ) );
#771 = ADVANCED_FACE('',(#772,#798),#760,.F.);
#772 = FACE_BOUND('',#773,.F.);
#773 = EDGE_LOOP('',(#774));
#774 = ORIENTED_EDGE('',*,*,#775,.T.);
#775 = EDGE_CURVE('',#776,#776,#778,.T.);
#776 = VERTEX_POINT('',#777);
#777 = CARTESIAN_POINT('',(7.4,0.,0.));
#778 = SURFACE_CURVE('',#779,(#784,#791),.PCURVE_S1.);
#779 = CIRCLE('',#780,7.4);
#780 = AXIS2_PLACEMENT_3D('',#781,#782,#783);
#781 = CARTESIAN_POINT('',(0.,0.,0.));
#782 = DIRECTION('',(0.,0.,1.));
#783 = DIRECTION('',(1.,0.,-0.));
#784 = PCURVE('',#760,#785);
#785 = DEFINITIONAL_REPRESENTATION('',(#786),#790);
#786 = CIRCLE('',#787,7.4);
#787 = AXIS2_PLACEMENT_2D('',#788,#789);
#788 = CARTESIAN_POINT('',(0.,0.));
#789 = DIRECTION('',(1.,0.));
#790 = ( GEOMETRIC_REPRESENTATION_CONTEXT(2) 
PARAMETRIC_REPRESENTATION_CONTEXT() REPRESENTATION_CONTEXT('2D SPACE',''
  ) );
#791 = PCURVE('',#228,#792);
#792 = DEFINITIONAL_REPRESENTATION('',(#793),#797);
#793 = LINE('',#794,#795);
#794 = CARTESIAN_POINT('',(0.,-0.6));
#795 = VECTOR('',#796,1.);
#796 = DIRECTION('',(1.,-0.));
#797 = ( GEOMETRIC_REPRESENTATION_CONTEXT(2) 
PARAMETRIC_REPRESENTATION_CONTEXT() REPRESENTATION_CONTEXT('2D SPACE',''
  ) );
#798 = FACE_BOUND('',#799,.F.);
#799 = EDGE_LOOP('',(#800));
#800 = ORIENTED_EDGE('',*,*,#745,.F.);
#801 = ADVANCED_FACE('',(#802),#520,.F.);
#802 = FACE_BOUND('',#803,.F.);
#803 = EDGE_LOOP('',(#804,#805));
#804 = ORIENTED_EDGE('',*,*,#503,.T.);
#805 = ORIENTED_EDGE('',*,*,#721,.T.);
#806 = ADVANCED_FACE('',(#807),#228,.T.);
#807 = FACE_BOUND('',#808,.F.);
#808 = EDGE_LOOP('',(#809,#828,#829,#830));
#809 = ORIENTED_EDGE('',*,*,#810,.F.);
#810 = EDGE_CURVE('',#191,#776,#811,.T.);
#811 = SEAM_CURVE('',#812,(#816,#822),.PCURVE_S1.);
#812 = LINE('',#813,#814);
#813 = CARTESIAN_POINT('',(8.,0.,0.6));
#814 = VECTOR('',#815,1.);
#815 = DIRECTION('',(-0.707106781187,-0.,-0.707106781187));
#816 = PCURVE('',#228,#817);
#817 = DEFINITIONAL_REPRESENTATION('',(#818),#821);
#818 = B_SPLINE_CURVE_WITH_KNOTS('',1,(#819,#820),.UNSPECIFIED.,.F.,.F.,
  (2,2),(0.,0.848528137424),.PIECEWISE_BEZIER_KNOTS.);
#819 = CARTESIAN_POINT('',(0.,0.));
#820 = CARTESIAN_POINT('',(0.,-0.6));
#821 = ( GEOMETRIC_REPRESENTATION_CONTEXT(2) 
PARAMETRIC_REPRESENTATION_CONTEXT() REPRESENTATION_CONTEXT('2D SPACE',''
  ) );
#822 = PCURVE('',#228,#823);
#823 = DEFINITIONAL_REPRESENTATION('',(#824),#827);
#824 = B_SPLINE_CURVE_WITH_KNOTS('',1,(#825,#826),.UNSPECIFIED.,.F.,.F.,
  (2,2),(0.,0.848528137424),.PIECEWISE_BEZIER_KNOTS.);
#825 = CARTESIAN_POINT('',(6.28318530718,0.));
#826 = CARTESIAN_POINT('',(6.28318530718,-0.6));
#827 = ( GEOMETRIC_REPRESENTATION_CONTEXT(2) 
PARAMETRIC_REPRESENTATION_CONTEXT() REPRESENTATION_CONTEXT('2D SPACE',''
  ) );
#828 = ORIENTED_EDGE('',*,*,#213,.T.);
#829 = ORIENTED_EDGE('',*,*,#810,.T.);
#830 = ORIENTED_EDGE('',*,*,#775,.F.);
#831 = ADVANCED_FACE('',(#832),#72,.T.);
#832 = FACE_BOUND('',#833,.T.);
#833 = EDGE_LOOP('',(#834,#835,#836,#863,#891,#916));
#834 = ORIENTED_EDGE('',*,*,#166,.F.);
#835 = ORIENTED_EDGE('',*,*,#57,.T.);
#836 = ORIENTED_EDGE('',*,*,#837,.F.);
#837 = EDGE_CURVE('',#838,#24,#840,.T.);
#838 = VERTEX_POINT('',#839);
#839 = CARTESIAN_POINT('',(-1.204159457879,2.775,35.));
#840 = SURFACE_CURVE('',#841,(#846,#853),.PCURVE_S1.);
#841 = HYPERBOLA('',#842,2.775,2.775);
#842 = AXIS2_PLACEMENT_3D('',#843,#844,#845);
#843 = CARTESIAN_POINT('',(0.,2.775,38.025));
#844 = DIRECTION('',(0.,1.,0.));
#845 = DIRECTION('',(0.,0.,-1.));
#846 = PCURVE('',#72,#847);
#847 = DEFINITIONAL_REPRESENTATION('',(#848),#852);
#848 = ( BOUNDED_CURVE() B_SPLINE_CURVE(2,(#849,#850,#851),
.UNSPECIFIED.,.F.,.F.) B_SPLINE_CURVE_WITH_KNOTS((3,3),(0.421352516393,
0.671746107021),.PIECEWISE_BEZIER_KNOTS.) CURVE() 
GEOMETRIC_REPRESENTATION_ITEM() RATIONAL_B_SPLINE_CURVE((1.,
1.007847360867,1.)) REPRESENTATION_ITEM('') );
#849 = CARTESIAN_POINT('',(5.645840542121,-15.));
#850 = CARTESIAN_POINT('',(5.269086625899,-14.85002585404));
#851 = CARTESIAN_POINT('',(4.842514010012,-14.6));
#852 = ( GEOMETRIC_REPRESENTATION_CONTEXT(2) 
PARAMETRIC_REPRESENTATION_CONTEXT() REPRESENTATION_CONTEXT('2D SPACE',''
  ) );
#853 = PCURVE('',#45,#854);
#854 = DEFINITIONAL_REPRESENTATION('',(#855),#862);
#855 = B_SPLINE_CURVE_WITH_KNOTS('',5,(#856,#857,#858,#859,#860,#861),
  .UNSPECIFIED.,.F.,.F.,(6,6),(0.421352516393,0.671746107021),
  .PIECEWISE_BEZIER_KNOTS.);
#856 = CARTESIAN_POINT('',(-1.980207509457,-0.4));
#857 = CARTESIAN_POINT('',(-2.026147490547,-0.339697237931));
#858 = CARTESIAN_POINT('',(-2.070942795665,-0.269911585969));
#859 = CARTESIAN_POINT('',(-2.114428938667,-0.190327821508));
#860 = CARTESIAN_POINT('',(-2.156492305413,-0.100532325034));
#861 = CARTESIAN_POINT('',(-2.197067033237,0.));
#862 = ( GEOMETRIC_REPRESENTATION_CONTEXT(2) 
PARAMETRIC_REPRESENTATION_CONTEXT() REPRESENTATION_CONTEXT('2D SPACE',''
  ) );
#863 = ORIENTED_EDGE('',*,*,#864,.T.);
#864 = EDGE_CURVE('',#838,#865,#867,.T.);
#865 = VERTEX_POINT('',#866);
#866 = CARTESIAN_POINT('',(1.204159457879,2.775,35.));
#867 = SURFACE_CURVE('',#868,(#872,#879),.PCURVE_S1.);
#868 = LINE('',#869,#870);
#869 = CARTESIAN_POINT('',(0.,2.775,35.));
#870 = VECTOR('',#871,1.);
#871 = DIRECTION('',(1.,0.,0.));
#872 = PCURVE('',#72,#873);
#873 = DEFINITIONAL_REPRESENTATION('',(#874),#878);
#874 = LINE('',#875,#876);
#875 = CARTESIAN_POINT('',(6.85,-15.));
#876 = VECTOR('',#877,1.);
#877 = DIRECTION('',(1.,0.));
#878 = ( GEOMETRIC_REPRESENTATION_CONTEXT(2) 
PARAMETRIC_REPRESENTATION_CONTEXT() REPRESENTATION_CONTEXT('2D SPACE',''
  ) );
#879 = PCURVE('',#880,#885);
#880 = PLANE('',#881);
#881 = AXIS2_PLACEMENT_3D('',#882,#883,#884);
#882 = CARTESIAN_POINT('',(0.,0.,35.));
#883 = DIRECTION('',(0.,0.,1.));
#884 = DIRECTION('',(1.,0.,0.));
#885 = DEFINITIONAL_REPRESENTATION('',(#886),#890);
#886 = LINE('',#887,#888);
#887 = CARTESIAN_POINT('',(0.,2.775));
#888 = VECTOR('',#889,1.);
#889 = DIRECTION('',(1.,0.));
#890 = ( GEOMETRIC_REPRESENTATION_CONTEXT(2) 
PARAMETRIC_REPRESENTATION_CONTEXT() REPRESENTATION_CONTEXT('2D SPACE',''
  ) );
#891 = ORIENTED_EDGE('',*,*,#892,.F.);
#892 = EDGE_CURVE('',#22,#865,#893,.T.);
#893 = SURFACE_CURVE('',#894,(#899,#906),.PCURVE_S1.);
#894 = HYPERBOLA('',#895,2.775,2.775);
#895 = AXIS2_PLACEMENT_3D('',#896,#897,#898);
#896 = CARTESIAN_POINT('',(0.,2.775,38.025));
#897 = DIRECTION('',(0.,1.,0.));
#898 = DIRECTION('',(0.,0.,-1.));
#899 = PCURVE('',#72,#900);
#900 = DEFINITIONAL_REPRESENTATION('',(#901),#905);
#901 = ( BOUNDED_CURVE() B_SPLINE_CURVE(2,(#902,#903,#904),
.UNSPECIFIED.,.F.,.F.) B_SPLINE_CURVE_WITH_KNOTS((3,3),(-0.671746107021,
-0.421352516393),.PIECEWISE_BEZIER_KNOTS.) CURVE() 
GEOMETRIC_REPRESENTATION_ITEM() RATIONAL_B_SPLINE_CURVE((1.,
1.007847360867,1.)) REPRESENTATION_ITEM('') );
#902 = CARTESIAN_POINT('',(8.857485989988,-14.6));
#903 = CARTESIAN_POINT('',(8.430913374101,-14.85002585404));
#904 = CARTESIAN_POINT('',(8.054159457879,-15.));
#905 = ( GEOMETRIC_REPRESENTATION_CONTEXT(2) 
PARAMETRIC_REPRESENTATION_CONTEXT() REPRESENTATION_CONTEXT('2D SPACE',''
  ) );
#906 = PCURVE('',#45,#907);
#907 = DEFINITIONAL_REPRESENTATION('',(#908),#915);
#908 = B_SPLINE_CURVE_WITH_KNOTS('',5,(#909,#910,#911,#912,#913,#914),
  .UNSPECIFIED.,.F.,.F.,(6,6),(-0.671746107021,-0.421352516393),
  .PIECEWISE_BEZIER_KNOTS.);
#909 = CARTESIAN_POINT('',(-7.227710927532,0.));
#910 = CARTESIAN_POINT('',(-7.268285655356,-0.100532325034));
#911 = CARTESIAN_POINT('',(-7.310349022102,-0.190327821508));
#912 = CARTESIAN_POINT('',(-7.353835165104,-0.269911585969));
#913 = CARTESIAN_POINT('',(-7.398630470222,-0.339697237931));
#914 = CARTESIAN_POINT('',(-7.444570451312,-0.4));
#915 = ( GEOMETRIC_REPRESENTATION_CONTEXT(2) 
PARAMETRIC_REPRESENTATION_CONTEXT() REPRESENTATION_CONTEXT('2D SPACE',''
  ) );
#916 = ORIENTED_EDGE('',*,*,#112,.F.);
#917 = ADVANCED_FACE('',(#918),#880,.T.);
#918 = FACE_BOUND('',#919,.T.);
#919 = EDGE_LOOP('',(#920,#921));
#920 = ORIENTED_EDGE('',*,*,#864,.F.);
#921 = ORIENTED_EDGE('',*,*,#922,.F.);
#922 = EDGE_CURVE('',#865,#838,#923,.T.);
#923 = SURFACE_CURVE('',#924,(#929,#940),.PCURVE_S1.);
#924 = CIRCLE('',#925,3.025);
#925 = AXIS2_PLACEMENT_3D('',#926,#927,#928);
#926 = CARTESIAN_POINT('',(0.,0.,35.));
#927 = DIRECTION('',(0.,0.,-1.));
#928 = DIRECTION('',(0.398069242274,0.917355371901,0.));
#929 = PCURVE('',#880,#930);
#930 = DEFINITIONAL_REPRESENTATION('',(#931),#939);
#931 = ( BOUNDED_CURVE() B_SPLINE_CURVE(2,(#932,#933,#934,#935,#936,#937
,#938),.UNSPECIFIED.,.T.,.F.) B_SPLINE_CURVE_WITH_KNOTS((1,2,2,2,2,1),(
    -2.094395102393,0.,2.094395102393,4.188790204786,6.28318530718,
8.377580409573),.UNSPECIFIED.) CURVE() GEOMETRIC_REPRESENTATION_ITEM() 
RATIONAL_B_SPLINE_CURVE((1.,0.5,1.,0.5,1.,0.5,1.)) REPRESENTATION_ITEM(
  '') );
#932 = CARTESIAN_POINT('',(1.204159457879,2.775));
#933 = CARTESIAN_POINT('',(6.010600448883,0.689334638539));
#934 = CARTESIAN_POINT('',(1.801140766562,-2.430332680731));
#935 = CARTESIAN_POINT('',(-2.408318915758,-5.55));
#936 = CARTESIAN_POINT('',(-3.005300224441,-0.344667319269));
#937 = CARTESIAN_POINT('',(-3.602281533124,4.860665361461));
#938 = CARTESIAN_POINT('',(1.204159457879,2.775));
#939 = ( GEOMETRIC_REPRESENTATION_CONTEXT(2) 
PARAMETRIC_REPRESENTATION_CONTEXT() REPRESENTATION_CONTEXT('2D SPACE',''
  ) );
#940 = PCURVE('',#45,#941);
#941 = DEFINITIONAL_REPRESENTATION('',(#942),#946);
#942 = LINE('',#943,#944);
#943 = CARTESIAN_POINT('',(-7.444570451312,-0.4));
#944 = VECTOR('',#945,1.);
#945 = DIRECTION('',(1.,-0.));
#946 = ( GEOMETRIC_REPRESENTATION_CONTEXT(2) 
PARAMETRIC_REPRESENTATION_CONTEXT() REPRESENTATION_CONTEXT('2D SPACE',''
  ) );
#947 = ADVANCED_FACE('',(#948),#45,.T.);
#948 = FACE_BOUND('',#949,.T.);
#949 = EDGE_LOOP('',(#950,#951,#952,#953));
#950 = ORIENTED_EDGE('',*,*,#922,.T.);
#951 = ORIENTED_EDGE('',*,*,#837,.T.);
#952 = ORIENTED_EDGE('',*,*,#21,.F.);
#953 = ORIENTED_EDGE('',*,*,#892,.T.);
#954 = ( GEOMETRIC_REPRESENTATION_CONTEXT(3) 
GLOBAL_UNCERTAINTY_ASSIGNED_CONTEXT((#958)) GLOBAL_UNIT_ASSIGNED_CONTEXT
((#955,#956,#957)) REPRESENTATION_CONTEXT('Context #1',
  '3D Context with UNIT and UNCERTAINTY') );
#955 = ( LENGTH_UNIT() NAMED_UNIT(*) SI_UNIT(.MILLI.,.METRE.) );
#956 = ( NAMED_UNIT(*) PLANE_ANGLE_UNIT() SI_UNIT($,.RADIAN.) );
#957 = ( NAMED_UNIT(*) SI_UNIT($,.STERADIAN.) SOLID_ANGLE_UNIT() );
#958 = UNCERTAINTY_MEASURE_WITH_UNIT(LENGTH_MEASURE(1.E-07),#955,
  'distance_accuracy_value','confusion accuracy');
#959 = PRODUCT_RELATED_PRODUCT_CATEGORY('part',$,(#7));
ENDSEC;
END-ISO-10303-21;
